<?xml version="1.0" encoding="utf-8"?>
<!DOCTYPE svg PUBLIC "-//W3C//DTD SVG 1.1//EN" "http://www.w3.org/Graphics/SVG/1.1/DTD/svg11.dtd">
<svg version="1.1" x="0px" y="0px" width="1815.201660px" height="1815.201660px" viewBox="0.000000 -0.000000 1815.201660 1055.106689">
	<path d="M817.343090 1055.011127 C816.426464 1052.620746 815.177075 1050.230609 815.176037 1047.839984 C815.086254 845.351581 815.093090 642.863178 815.093090 440.374805 C815.093090 433.984668 815.120434 427.594287 815.066235 421.204608 C815.057140 420.138568 814.693493 419.075550 814.493664 418.011127 C813.365368 418.505939 811.883251 418.697956 811.161755 419.540912 C800.126171 432.435169 789.284374 445.495990 778.194470 458.342853 C771.674023 465.896350 764.654614 473.018421 758.109875 480.551899 C746.216808 494.241809 734.545056 508.123737 722.705212 521.860248 C719.068127 526.080036 715.102734 530.015583 711.428051 534.204486 C700.073681 547.147846 688.819897 560.179401 677.462780 573.120380 C669.507641 582.184833 661.382885 591.100727 653.449719 600.184223 C642.779980 612.401142 632.229992 624.722431 621.612316 636.984821 C617.038769 642.266803 612.413281 647.503742 607.830517 652.777729 C596.864330 665.397907 586.006542 678.115497 574.821545 690.538532 C573.490002 692.017475 570.163036 692.850177 568.169079 692.351337 C563.509289 691.185565 560.365429 692.812030 557.525097 696.077106 C548.571911 706.369037 539.654553 716.692707 530.634838 726.926105 C527.660168 730.301044 524.378613 730.135761 521.429272 726.821613 C508.434979 712.220172 495.501232 697.564838 482.522137 682.949787 C476.778118 676.481830 470.939861 670.097431 465.212109 663.615192 C452.930401 649.715717 440.705547 635.766071 428.431103 621.860126 C422.926922 615.624408 417.321545 609.477741 411.828777 603.232074 C400.018902 589.803485 388.275433 576.316486 376.457806 562.894733 C370.741558 556.402545 364.851025 550.063434 359.159435 543.550067 C348.267590 531.085651 337.494488 518.517536 326.602001 506.053669 C322.825970 501.732898 318.769818 497.657703 314.967602 493.358905 C305.379315 482.518207 295.914379 471.567920 286.267071 460.780445 C284.640606 458.961750 282.351116 457.735981 280.367962 456.236255 C279.943005 458.560077 279.146679 460.883808 279.145947 463.207782 C279.088299 644.697345 279.093090 826.186969 279.093090 1007.676593 C279.093090 1016.709247 276.976483 1018.901020 267.792584 1018.991718 C258.793987 1019.080707 249.791165 1019.139301 240.795437 1018.955097 C236.528820 1018.867939 234.939465 1020.583026 235.041638 1024.775043 C235.224301 1032.270160 234.936077 1039.777851 235.169018 1047.270160 C235.264523 1050.341571 234.623516 1052.732563 232.093090 1054.761127 C156.259762 1055.011127 80.426373 1054.979267 4.593251 1055.106708 C0.843099 1055.113056 -0.001114 1054.260273 0.000001 1050.511127 C0.100359 713.177814 0.093090 375.844471 0.093090 38.261127 C9.758372 38.011127 19.430094 37.802784 29.086151 38.101268 C33.736435 38.245010 35.081638 36.024757 35.089050 32.052307 C35.103047 24.553407 35.091400 17.054464 35.093670 9.555538 C35.095246 4.345268 37.458641 1.657930 42.685208 1.031317 C43.835175 0.893446 45.015785 1.011127 46.182285 1.011127 C120.005055 1.011127 193.827816 1.015796 267.650585 1.002774 C273.948345 1.001663 278.506176 3.509302 282.479504 8.667162 C289.679363 18.013362 297.708080 26.718139 305.315807 35.753818 C313.729351 45.746566 322.017651 55.844821 330.436932 65.832691 C338.156902 74.990947 346.072186 83.985660 353.731213 93.193950 C362.673046 103.944431 371.391186 114.880672 380.285412 125.671161 C384.305218 130.547977 388.564221 135.226795 392.631085 140.065753 C404.675274 154.396640 416.629894 168.803043 428.713452 183.100559 C436.873974 192.756321 445.313397 202.177600 453.413616 211.882770 C465.891827 226.833393 478.103314 242.006671 490.587811 256.951953 C498.798626 266.781116 507.370159 276.308216 515.634045 286.093982 C523.633618 295.566822 531.363354 305.267627 539.366528 314.737354 C546.076367 322.676807 553.060131 330.384265 559.809216 338.291278 C561.568127 340.352008 562.761059 340.262256 564.399243 338.242145 C573.311352 327.251972 582.224072 316.261035 591.267224 305.378925 C597.273632 298.151172 603.547192 291.146198 609.614636 283.968250 C618.261791 273.738361 626.779064 263.398365 635.445995 253.185291 C643.626110 243.545826 652.031262 234.096241 660.148754 224.405109 C669.340527 213.431537 678.270336 202.238895 687.414135 191.224643 C693.204968 184.249332 699.237316 177.474964 705.056957 170.523136 C714.884899 158.783191 724.573132 146.926090 734.428234 135.209140 C742.352001 125.788486 750.511730 116.566242 758.426403 107.138034 C766.184887 97.895832 773.729015 88.473957 781.437756 79.189479 C786.911022 72.597538 792.506420 66.107074 798.037731 59.563213 C801.582348 55.369739 804.986157 51.049476 808.676830 46.989341 C812.918530 42.322898 817.009777 37.807403 824.435681 37.842487 C832.449780 37.880348 835.406628 30.144668 839.971142 25.320484 C845.907849 19.046123 850.659313 11.654695 856.552319 5.332616 C859.076367 2.624775 862.700390 0.890044 867.171581 0.899397 C941.993847 1.055928 1016.816601 1.011127 1091.639233 1.011127 C1098.516796 1.011127 1100.092358 2.607940 1100.092358 9.605335 C1100.093456 120.256153 1100.069042 230.906986 1100.136547 341.557758 C1100.142285 350.975696 1100.899975 360.391315 1101.027905 369.811817 C1101.083447 373.891681 1100.137646 377.981067 1100.135449 382.066394 C1100.081005 479.219104 1100.093090 576.371845 1100.093090 673.524616 C1100.093090 778.900043 1100.093090 884.275409 1100.093090 989.650836 C1100.093090 996.040424 1099.746533 1002.453388 1100.176342 1008.813922 C1100.784496 1017.812030 1097.020336 1018.346698 1090.139599 1018.853900 C1081.355297 1019.501728 1072.487011 1018.991962 1063.654980 1019.018817 C1058.760571 1019.033710 1057.406445 1022.264179 1057.584423 1027.216205 C1057.917919 1036.494770 1060.997753 1046.500995 1053.093090 1054.761127 C974.593090 1055.011127 896.093090 1055.011127 817.343090 1055.011127 M388.093090 147.511127 C381.230389 139.648426 374.271404 131.867221 367.529766 123.902057 C359.411572 114.310558 351.541515 104.509311 343.446575 94.897800 C335.515850 85.481266 327.372875 76.243534 319.442181 66.826992 C311.347241 57.215469 303.442944 47.443557 295.368572 37.814502 C289.435833 30.739475 282.991223 24.057659 277.504284 16.659524 C274.589123 12.728960 271.356518 11.018566 266.825787 11.017961 C194.328991 11.008270 121.832112 11.051281 49.335541 10.921011 C44.489292 10.912303 43.069637 13.006429 43.084416 17.232847 C43.113758 25.622884 43.093090 34.013099 43.093090 42.403240 C43.093090 361.555805 43.088394 680.708393 43.161846 999.860981 C43.162560 1002.964923 43.611626 1006.394855 45.057392 1009.004474 C45.601193 1009.986103 49.579693 1009.018207 51.992371 1009.017963 C122.322598 1009.009540 192.652813 1009.012897 262.983044 1009.008136 C269.197277 1009.007709 270.092877 1008.125995 270.092877 1002.157245 C270.093151 815.274982 270.093090 628.392719 270.093090 441.510486 C270.093090 414.121173 270.026287 386.731464 270.207501 359.343341 C270.223736 356.893817 271.152630 353.408161 272.887890 352.255146 C275.526318 350.501880 277.960980 353.104511 279.876476 355.279712 C287.517376 363.956470 295.159069 372.632801 302.856213 381.259601 C311.661114 391.127887 320.585186 400.890308 329.349102 410.794635 C341.310009 424.311939 353.146618 437.939136 365.080364 451.480548 C370.799603 457.970264 376.660687 464.334919 382.385693 470.819629 C394.551556 484.599872 406.639965 498.448474 418.821087 512.215168 C424.994305 519.191852 431.379376 525.981647 437.528546 532.979084 C448.784466 545.787738 459.896282 558.723041 471.147900 571.535602 C477.184918 578.410114 483.450176 585.083881 489.502453 591.945331 C501.332195 605.356708 513.064282 618.854084 524.878185 632.279438 C530.482739 638.648456 536.257214 644.868854 541.821118 651.272541 C549.786877 660.440692 557.579235 669.759479 565.555920 678.917865 C568.070507 681.804950 570.765515 681.102253 573.116345 678.477436 C578.554516 672.405353 583.989514 666.330036 589.379345 660.215107 C601.534130 646.425067 613.665417 632.614399 625.796276 618.803363 C630.407177 613.553852 635.012036 608.298664 639.582409 603.013813 C650.084179 590.870624 660.508801 578.660297 671.069042 566.568317 C679.111401 557.359272 687.365063 548.334980 695.433117 539.148029 C706.794750 526.210834 718.045605 513.176288 729.396008 500.229114 C734.988537 493.849781 740.777050 487.641559 746.338513 481.235675 C758.881176 466.788410 771.273754 452.210498 783.851940 437.794452 C792.218029 428.205921 800.861645 418.860096 809.268688 409.306720 C820.643383 396.381000 831.908886 383.359272 843.224255 370.381397 C847.175732 365.849414 851.228710 361.401783 855.059155 356.770008 C857.425305 353.908893 860.016125 351.042560 863.901989 352.150501 C867.823864 353.268695 867.085278 357.177875 867.085400 360.323749 C867.093823 574.647602 867.108044 788.971515 866.992199 1003.295307 C866.989758 1007.869037 868.088879 1009.130573 872.755810 1009.120136 C943.252331 1008.963031 1013.749279 1009.011310 1084.246166 1009.010883 C1090.646191 1009.010883 1091.092602 1008.581684 1091.092602 1002.394062 C1091.093212 674.075214 1091.093212 345.756397 1091.091992 17.437585 C1091.091992 11.609682 1089.447460 9.973613 1083.469921 10.017841 C1040.109936 10.338672 996.750073 10.712810 953.389538 10.962270 C948.529919 10.990230 943.665478 10.068447 938.804943 10.084060 C933.275585 10.101823 927.745312 10.988891 922.220287 10.941566 C912.856579 10.861358 903.496899 10.094181 894.135082 10.084219 C885.440563 10.074970 876.745434 10.910020 868.050549 10.909383 C863.940441 10.909084 861.395031 12.823413 859.093701 15.689735 C855.278454 20.441558 851.563793 25.278253 847.631970 29.931499 C841.350964 37.364986 834.864453 44.624740 828.578320 52.053997 C820.032421 62.153896 811.600598 72.350223 803.105908 82.493457 C797.817211 88.808498 792.474682 95.078617 787.205883 101.410205 C779.167736 111.069759 771.245190 120.826442 763.138622 130.427967 C754.982006 140.088657 746.588452 149.549228 738.431896 159.209949 C730.325329 168.811496 722.430309 178.591358 714.355969 188.220417 C708.423229 195.295444 702.284680 202.197971 696.357067 209.277072 C688.395886 218.784519 680.617993 228.445697 672.632275 237.932148 C666.258190 245.504062 659.576672 252.817981 653.234631 260.415943 C642.301281 273.514545 631.578076 286.788471 620.663464 299.902851 C614.651074 307.127002 608.357189 314.116413 602.316357 321.317462 C592.475536 333.048542 582.848461 344.960712 572.900524 356.599323 C569.113537 361.029956 566.160290 360.492633 562.502087 355.975330 C557.319164 349.575031 551.956005 343.319446 546.615673 337.048206 C540.521374 329.891590 534.296276 322.845417 528.257275 315.642902 C520.289990 306.140705 512.488171 296.499866 504.539379 286.981983 C498.833782 280.150104 492.944500 273.471546 487.243969 266.635486 C479.408489 257.239154 471.751568 247.693332 463.874493 238.332416 C455.840954 228.785495 447.560497 219.446414 439.519421 209.905704 C427.668133 195.844135 415.887463 181.722293 404.169232 167.549625 C398.862621 161.131519 393.778271 154.529636 388.093090 147.511127 z" />
	<path d="M1128.343090 1055.011127 C1126.196728 1050.735126 1122.924023 1046.797626 1125.044140 1041.562763 C1125.392162 1040.703632 1125.093090 1039.582538 1125.093090 1038.582538 C1125.093090 841.419940 1125.093090 644.257343 1125.093090 447.094745 C1125.093090 438.676899 1128.803417 436.307788 1137.328442 436.813495 C1146.471630 437.355823 1155.712475 436.434040 1164.892040 435.854785 C1165.696728 435.804004 1166.934521 433.579456 1166.992993 432.319049 C1167.232861 427.163684 1166.711010 421.953540 1167.208203 416.835254 C1167.643139 412.357196 1168.620556 407.798328 1170.269970 403.636402 C1170.943066 401.937641 1173.972851 401.099689 1176.028027 400.063648 C1176.692455 399.728687 1177.668163 400.011127 1178.501415 400.011127 C1361.997631 400.011127 1545.493969 400.043903 1728.990063 399.878070 C1735.575024 399.872119 1739.252636 403.759082 1739.231152 410.044300 C1739.007275 475.542194 1739.093090 541.041156 1739.093090 606.539814 C1739.093090 617.057514 1736.708203 619.843769 1726.342358 619.928913 C1717.817333 619.998920 1709.288403 619.241718 1700.756786 619.058795 C1697.048901 618.979328 1695.082592 621.089130 1695.089062 624.896442 C1695.102368 632.562946 1695.099804 640.229511 1695.090649 647.896015 C1695.084789 652.902301 1692.138867 655.874347 1687.072338 656.008625 C1686.406201 656.026325 1685.739086 656.011127 1685.072460 656.011127 C1596.074291 656.011127 1507.076122 656.011066 1418.077953 656.011127 C1411.449780 656.011127 1411.093090 656.367450 1411.093090 662.990436 C1411.092968 777.988056 1411.093090 892.985736 1411.093090 1007.983356 C1411.093090 1016.640094 1408.931957 1018.868183 1399.984936 1018.987445 C1391.653393 1019.098529 1383.318920 1019.011127 1374.985790 1019.011127 C1368.083447 1019.011127 1367.023144 1021.328144 1367.640576 1028.287494 C1368.313061 1035.866962 1367.465161 1043.599872 1366.964306 1051.245258 C1366.889355 1052.391620 1365.093090 1053.425312 1364.093090 1054.761127 C1285.593090 1055.011127 1207.093090 1055.011127 1128.343090 1055.011127 M1177.093090 695.511127 C1177.093090 797.323200 1177.093090 899.135273 1177.093090 1000.947345 C1177.093090 1007.597797 1178.492138 1009.011127 1185.076733 1009.011127 C1255.228954 1009.011188 1325.381298 1008.946918 1395.533154 1009.122150 C1401.749951 1009.137653 1403.124340 1007.779377 1403.122265 1001.109211 C1403.082836 873.468830 1403.093090 745.828388 1403.093090 618.188007 C1403.093090 617.021564 1402.700024 615.645710 1403.184155 614.737201 C1403.934887 613.327838 1405.099804 611.479938 1406.415112 611.160602 C1409.665722 610.371418 1413.100536 610.063190 1416.462597 610.054950 C1447.122753 609.980243 1477.783154 610.011127 1508.443554 610.011127 C1579.928906 610.011127 1651.414135 610.012043 1722.899487 610.009052 C1727.903881 610.008808 1730.081738 608.131549 1730.082714 603.656879 C1730.097851 540.836444 1730.087963 478.016040 1730.104687 415.195636 C1730.105908 410.919178 1728.653393 408.917133 1723.815380 408.920032 C1544.018994 409.028125 1364.222729 409.010822 1184.426342 409.012592 C1179.214672 409.012622 1177.054760 410.999225 1177.145336 416.224659 C1177.209423 419.923786 1178.058300 423.617481 1178.021557 427.308277 C1177.969433 432.562336 1177.139721 437.811359 1177.135937 443.062885 C1177.075146 526.878925 1177.093090 610.695026 1177.093090 695.511127 z" />
	<path d="
M1124.093090 150.011127 C1124.093090 118.682048 1124.053539 87.852863 1124.137646 57.024017 C1124.149731 52.604679 1124.633251 48.172641 1125.132519 43.773021 C1125.538891 40.193336 1130.618847 37.082130 1136.055737 37.032337 C1144.720532 36.952983 1153.392040 36.828277 1162.049389 37.094928 C1165.881542 37.212959 1167.423168 36.257782 1167.176220 32.169841 C1166.841870 26.633651 1167.096630 21.062093 1167.092358 15.505710 C1167.083325 3.480160 1169.955395 0.471376 1181.902538 0.015282 C1182.734570 -0.016483 1183.568920 0.011127 1184.402172 0.011127 C1389.540478 0.011127 1594.678784 0.006359 1799.817089 0.052718 C1803.178661 0.053478 1806.850659 -0.037282 1809.800244 1.244082 C1812.040966 2.217527 1813.415722 5.267583 1815.047314 7.487926 C1815.365429 7.920783 1815.093090 8.787469 1815.093090 9.454044 C1815.093090 76.778087 1815.093334 144.102130 1815.092358 211.426166 C1815.092358 217.106006 1812.263378 219.983722 1806.544018 220.002155 C1796.545483 220.034366 1786.545361 220.111164 1776.548901 219.962207 C1772.512036 219.902057 1770.961376 221.505939 1771.042309 225.520237 C1771.210400 233.849033 1770.896557 242.190265 1771.179272 250.512836 C1771.312573 254.434131 1769.326489 255.604023 1766.122997 255.992542 C1765.137524 256.112110 1764.125561 256.011127 1763.125683 256.011127 C1553.654614 256.011127 1344.183422 256.011127 1134.712353 256.011127 C1126.436352 256.011127 1124.101757 253.619678 1124.098217 244.997028 C1124.085156 213.501728 1124.093090 182.006427 1124.093090 150.011127 M1177.093090 65.511127 C1177.093090 111.498348 1177.092602 157.485569 1177.093823 203.472797 C1177.094067 209.408512 1178.689037 211.010379 1184.601391 211.010410 C1389.544628 211.011249 1594.487744 211.011234 1799.430981 211.010593 C1805.673657 211.010562 1806.092602 210.581516 1806.092724 204.212116 C1806.093334 145.061847 1806.082348 85.911579 1806.135327 26.761356 C1806.137280 24.566446 1806.673412 22.354757 1807.109936 20.180868 C1808.205273 14.725637 1805.066479 10.015262 1800.213329 10.015152 C1595.103588 10.010466 1389.993725 10.010334 1184.883984 10.016012 C1180.085522 10.016145 1177.101879 13.026653 1177.097851 17.852724 C1177.084911 33.405513 1177.093090 48.958324 1177.093090 65.511127 z" />
</svg>